<svg xmlns="http://www.w3.org/2000/svg" width="536" height="233" viewBox="0 0 536 233">
  <g id="Groupe_31" data-name="Groupe 31" transform="translate(-60 128)">
    <path id="gesture" d="M11.161,25.034,0,14.176q1.508-1.81,5.731-6.034Q13.575,0,23.225,0q5.429,0,10.707,4.526T39.214,18.4A25.984,25.984,0,0,1,37.4,28.654a68.89,68.89,0,0,1-6.336,10.859Q22.321,52.483,19,62.136q-1.508,5.429-.755,8.9t3.166,3.472q2.716,0,7.239-5.429,4.825-5.127,14.478-17.5A64.637,64.637,0,0,1,57.006,39.214a31.634,31.634,0,0,1,18.1-5.731q12.668,0,18.853,8.3a35.733,35.733,0,0,1,7.091,18.548h15.687V76.312H101.048q-1.81,20.814-11.01,30.165t-19.152,9.351a20.516,20.516,0,0,1-14.629-5.883A18.7,18.7,0,0,1,50.072,95.92q0-9.955,9.049-20.965T84.76,61.23v-.907A20.465,20.465,0,0,0,84,56.552,17.563,17.563,0,0,0,82.5,53.386a6.448,6.448,0,0,0-3.317-2.716,15.062,15.062,0,0,0-5.58-.907q-5.429,0-11.765,6.034A178.617,178.617,0,0,0,47.356,71.783q-4.825,5.731-7.088,8.444a40.3,40.3,0,0,1-5.883,5.59,19.584,19.584,0,0,1-6.937,3.771,17.684,17.684,0,0,1-16.892-2.716Q1.81,80.237,1.81,67.565a32.379,32.379,0,0,1,1.81-9.8,66.808,66.808,0,0,1,4.526-10.7q2.716-5.124,4.976-9.049T17.8,30.615a24.776,24.776,0,0,0,2.414-3.771q5.429-8.444,2.112-9.653Q19.907,16.285,11.161,25.034Zm60.027,75.107q4.224,0,8.3-5.429t5.278-17.194q-9.049,2.414-13.726,8.146T66.36,95.316a4.457,4.457,0,0,0,1.508,3.468,4.855,4.855,0,0,0,3.317,1.357Z" transform="translate(60 -48.172)"/>
    <text id="eStage" transform="translate(208 59)" stroke="rgba(0,0,0,0)" stroke-width="1" font-size="156" font-family="Oswald-Regular, Oswald"><tspan x="0" y="0">eStage</tspan></text>
  </g>
</svg>
